<?xml version="1.0" encoding="utf-8"?>
<!-- Generator: Adobe Illustrator 16.0.0, SVG Export Plug-In . SVG Version: 6.00 Build 0)  -->
<!DOCTYPE svg PUBLIC "-//W3C//DTD SVG 1.1//EN" "http://www.w3.org/Graphics/SVG/1.1/DTD/svg11.dtd">
<svg version="1.1" xmlns="http://www.w3.org/2000/svg" xmlns:xlink="http://www.w3.org/1999/xlink" x="0px" y="0px" width="2837px"
	 height="1709px" viewBox="0 0 2837 1709" enable-background="new 0 0 2837 1709" xml:space="preserve">
<g id="Calque_1">
</g>
<g id="Mode_Isolation">
	<path fill="#404548" d="M2743.855,1650.225h-2079c-20.56,0-37.224-16.678-37.224-37.236c0-20.531,16.664-37.195,37.224-37.195h2079
		c20.559,0,37.223,16.664,37.223,37.195C2781.078,1633.547,2764.414,1650.225,2743.855,1650.225"/>
	<path fill="#404548" d="M2387.947,942.951h-432.492c-20.545,0-37.223-16.664-37.223-37.223c0-20.546,16.678-37.21,37.223-37.21
		h432.492c20.561,0,37.195,16.664,37.195,37.21C2425.143,926.287,2408.508,942.951,2387.947,942.951"/>
	<path fill="#404548" d="M168.435,1162.734h-68.344c-20.531,0-37.195-16.664-37.195-37.223c0-20.546,16.664-37.21,37.195-37.21
		h68.344c20.545,0,37.209,16.664,37.209,37.21C205.644,1146.07,188.98,1162.734,168.435,1162.734"/>
	<path fill="#404548" d="M1076.704,142.922H100.288c-20.559,0-37.237-16.664-37.237-37.224c0-20.545,16.678-37.209,37.237-37.209
		h976.416c20.559,0,37.237,16.664,37.237,37.209C1113.941,126.258,1097.263,142.922,1076.704,142.922"/>
	<path fill="#404548" d="M591.42,456.994c0-103.163,68.484-169.523,181.786-169.523c48.206,0,80.733,10.561,103.556,22.401v74.405
		c-31.683-20.292-69.314-30.445-102.712-30.445c-51.159,0-101.475,27.056-101.475,94.289c0,62.128,34.678,104.836,98.522,104.836
		c13.092,0,26.198-1.688,38.461-4.219V488.69h-48.206v-60.019h125.156v161.479c-32.977,17.775-68.92,27.056-126.408,27.056
		C659.483,617.208,591.42,564.797,591.42,456.994"/>
	<path fill="#404548" d="M935.136,611.301V443.465l-9.31-62.564h69.764l6.342,30.431c16.06-21.572,36.366-36.365,70.158-36.365
		c3.389,0,6.778,0,10.153,0.436v66.361c-8.874-1.688-16.903-2.531-24.511-2.531c-20.714,0-37.617,6.328-51.567,19.87v152.198
		H935.136z"/>
	<path fill="#404548" d="M1235.188,552.52v-28.308c-8.874-2.109-18.591-3.811-29.18-3.811c-25.355,0-37.182,7.608-37.182,21.15
		c0,11.405,5.062,22.402,28.308,22.402C1211.521,563.953,1224.627,560.142,1235.188,552.52 M1236.889,579.155
		c-15.229,24.961-37.631,38.067-74.418,38.067c-42.258,0-67.626-25.805-67.626-64.266c0-43.973,35.086-75.67,95.962-75.67
		c15.637,0,30.853,1.266,43.973,4.641c-1.688-29.587-13.964-41.85-43.973-41.85c-29.602,0-60.876,8.465-82.013,23.259v-63.408
		c20.278-14.386,57.91-24.961,93.009-24.961c69.75,0,104.414,27.056,104.414,92.602v93.417l4.641,50.315h-71.016L1236.889,579.155z"
		/>
	<path fill="#404548" d="M1352.061,611.301V443.465l-9.309-62.564h69.75l6.778,31.275c16.917-21.965,39.741-37.209,73.969-37.209
		c41.878,0,78.216,19.884,78.216,77.372v158.962h-71.03V482.77c0-32.977-12.234-46.49-37.181-46.49
		c-15.638,0-27.9,7.186-40.163,20.7v154.322H1352.061z"/>
	<path fill="#404548" d="M1773.107,535.617v-74.391c-11.42-19.884-24.525-30.867-43.96-30.867c-29.18,0-47.771,24.089-47.771,64.688
		c0,39.305,17.325,67.219,47.334,67.219C1745.207,562.266,1759.593,554.222,1773.107,535.617 M1844.123,282.394v328.894h-60.441
		l-6.764-30.854c-19.871,24.525-41.85,35.93-77.357,35.93c-55.828,0-93.854-42.693-93.854-114.567
		c0-75.67,47.334-125.986,104.822-125.986c27.492,0,47.77,8.465,62.578,27.492v-120.91H1844.123z"/>
	<path fill="#404548" d="M456.575,760.926v101.025h16.087c47.334,0,70.594-16.481,70.594-50.302
		c0-34.664-25.369-50.302-71.887-50.724H456.575z M379.217,698.362h106.102c77.372,0,136.997,27.478,136.997,109.898
		c0,58.359-44.831,116.269-137.841,116.269h-27.9v92.588h-77.358V698.362z"/>
	<path fill="#404548" d="M783.346,958.35v-28.321c-8.859-2.124-18.577-3.812-29.166-3.812c-25.369,0-37.195,7.608-37.195,21.15
		c0,11.419,5.062,22.402,28.322,22.402C759.678,969.77,772.785,965.958,783.346,958.35 M785.047,984.984
		c-15.23,24.947-37.617,38.053-74.419,38.053c-42.258,0-67.626-25.805-67.626-64.251c0-43.974,35.086-75.685,95.962-75.685
		c15.651,0,30.853,1.266,43.974,4.641c-1.688-29.587-13.964-41.836-43.974-41.836c-29.587,0-60.876,8.452-82.013,23.245v-63.408
		c20.292-14.386,57.91-24.947,93.01-24.947c69.75,0,104.428,27.042,104.428,92.587v93.417l4.641,50.315H788L785.047,984.984z"/>
	<path fill="#404548" d="M909.317,1017.117V849.281l-9.309-62.564h69.75l6.356,30.431c16.06-21.558,36.352-36.352,70.158-36.352
		c3.389,0,6.778,0,10.153,0.422v66.375c-8.874-1.688-16.903-2.531-24.511-2.531c-20.729,0-37.631,6.328-51.567,19.856v152.199
		H909.317z"/>
	<path fill="#404548" d="M1094.872,786.717h71.044v230.4h-71.044V786.717z M1093.621,688.209h73.561v65.953h-73.561V688.209z"/>
	<path fill="#404548" d="M1213.686,1003.59v-59.625c35.916,14.807,62.564,21.571,88.763,21.571c22.823,0,36.366-2.953,36.366-14.372
		c0-15.215-27.056-15.637-49.894-19.87c-53.676-9.718-76.528-31.274-76.528-71.03c0-46.491,46.955-78.624,101.067-78.624
		c32.119,0,63.816,6.342,84.544,17.339v59.597c-30.038-14.794-54.112-21.136-77.372-21.136c-23.667,0-37.195,6.778-37.195,16.496
		c0,13.106,25.355,17.747,46.927,21.122c24.511,3.825,77.358,10.153,77.358,67.22c0,48.613-49.88,79.059-109.069,79.059
		C1267.377,1021.336,1239.449,1014.586,1213.686,1003.59"/>
	<path fill="#404548" d="M701.91,1245.38h81.155c-2.109-27.492-11.827-43.974-38.897-43.974
		C721.752,1201.406,706.128,1216.637,701.91,1245.38 M630.022,1274.967c0-76.922,46.927-125.971,114.146-125.971
		c77.794,0,112.022,46.082,112.022,137.812l-153.436,0.422c6.764,28.743,27.9,41.441,62.128,41.441
		c24.947,0,56.644-5.09,84.544-21.572v55.365c-25.763,17.774-63.83,26.648-99.759,26.648
		C674.854,1389.113,630.022,1348.106,630.022,1274.967"/>
	<polygon fill="#404548" points="999.079,1220.012 1043.459,1154.494 1117.442,1154.494 1029.51,1265.672 1121.268,1384.895 
		1035.852,1384.895 990.613,1318.941 946.653,1384.895 870.139,1384.895 959.76,1273.701 874.78,1154.494 959.338,1154.494 	"/>
	<path fill="#404548" d="M1226.075,1229.307v84.136c12.685,15.651,25.791,22.415,41.006,22.415
		c30.009,0,47.349-27.899,47.349-67.219c0-40.584-18.605-64.688-47.771-64.688
		C1248.913,1203.951,1236.65,1212.825,1226.075,1229.307 M1155.06,1478.732v-261.674l-9.309-62.578h69.764l6.75,30.867
		c16.917-23.246,39.319-35.944,67.233-35.944c57.488,0,100.603,42.286,100.603,117.956c0,71.873-38.039,122.598-93.853,122.598
		c-31.275,0-52.425-8.874-70.172-27.492v116.268H1155.06z"/>
	<path fill="#404548" d="M1431.092,1384.88v-167.821l-9.309-62.578h69.778l6.328,30.445c16.06-21.559,36.367-36.366,70.172-36.366
		c3.375,0,6.765,0,10.14,0.437v66.36c-8.874-1.688-16.89-2.531-24.512-2.531c-20.714,0-37.617,6.343-51.567,19.87v152.185H1431.092z
		"/>
	<path fill="#404548" d="M1671.632,1245.38h81.169c-2.109-27.492-11.841-43.974-38.896-43.974
		C1691.488,1201.406,1675.851,1216.637,1671.632,1245.38 M1599.772,1274.967c0-76.922,46.913-125.971,114.132-125.971
		c77.793,0,112.035,46.082,112.035,137.812l-153.449,0.422c6.75,28.743,27.899,41.441,62.127,41.441
		c24.947,0,56.645-5.09,84.559-21.572v55.365c-25.791,17.774-63.844,26.648-99.76,26.648
		C1644.562,1389.113,1599.772,1348.106,1599.772,1274.967"/>
	<path fill="#404548" d="M1866.932,1371.352v-59.611c35.93,14.795,62.564,21.572,88.777,21.572c22.809,0,36.352-2.953,36.352-14.371
		c0-15.23-27.057-15.639-49.895-19.871c-53.676-9.73-76.527-31.289-76.527-71.029c0-46.49,46.939-78.623,101.066-78.623
		c32.133,0,63.83,6.328,84.544,17.338v59.584c-30.023-14.795-54.112-21.123-77.372-21.123c-23.667,0-37.195,6.765-37.195,16.482
		c0,13.105,25.355,17.76,46.927,21.135c24.511,3.826,77.358,10.154,77.358,67.219c0,48.615-49.881,79.046-109.069,79.046
		C1920.623,1389.099,1892.709,1382.349,1866.932,1371.352"/>
	<path fill="#404548" d="M2097.726,1371.352v-59.611c35.93,14.795,62.578,21.572,88.776,21.572c22.824,0,36.365-2.953,36.365-14.371
		c0-15.23-27.056-15.639-49.893-19.871c-53.678-9.73-76.515-31.289-76.515-71.029c0-46.49,46.913-78.623,101.039-78.623
		c32.133,0,63.829,6.328,84.558,17.338v59.584c-30.023-14.795-54.112-21.123-77.371-21.123c-23.668,0-37.21,6.765-37.21,16.482
		c0,13.105,25.368,17.76,46.927,21.135c24.525,3.826,77.371,10.154,77.371,67.219c0,48.615-49.879,79.046-109.068,79.046
		C2151.416,1389.099,2123.502,1382.349,2097.726,1371.352"/>
	<path fill="#404548" d="M2759.957,616.055h-160.691c-20.561,0-37.225-16.664-37.225-37.224c0-20.531,16.664-37.209,37.225-37.209
		h160.691c20.545,0,37.209,16.678,37.209,37.209C2797.166,599.391,2780.502,616.055,2759.957,616.055"/>
</g>
</svg>
